<svg xmlns="http://www.w3.org/2000/svg" width="32" height="34" viewBox="0 0 32 34" fill="none">
<path d="M31 27L26.17 22.17C25.42 21.42 24.4 21 23.34 21H22L20 22H16C14.9 22 14 22.9 14 24V26" stroke="black" stroke-width="2" stroke-linecap="round" stroke-linejoin="round"/>
<path d="M25 32.9999L23 30.9999H11L2 21.9999L3.57 21.6099C5.1 21.2299 6.73 21.5799 7.96 22.5699L12 25.9999H20" stroke="black" stroke-width="2" stroke-linecap="round" stroke-linejoin="round"/>
<path d="M11 8V9" stroke="black" stroke-width="2" stroke-linecap="round" stroke-linejoin="round"/>
<path d="M17 8V9" stroke="black" stroke-width="2" stroke-linecap="round" stroke-linejoin="round"/>
<path d="M22.5 1C20.8 1 19.34 1.95 18.57 3.34C17.25 2.49 15.68 2 14 2C12.32 2 10.75 2.5 9.43 3.34C8.66 1.95 7.2 1 5.5 1C3.01 1 1 3.01 1 5.5C1 7.99 3.01 10 5.5 10C5.5 10 5.52 10 5.53 10C5.53 10.17 5.5 10.33 5.5 10.5C5.5 15.19 9.31 19 14 19C18.69 19 22.5 15.19 22.5 10.5C22.5 10.33 22.48 10.16 22.47 10C22.47 10 22.49 10 22.5 10C24.99 10 27 7.99 27 5.5C27 3.01 24.99 1 22.5 1Z" stroke="black" stroke-width="2" stroke-linecap="round" stroke-linejoin="round"/>
<path d="M13 12H15" stroke="black" stroke-width="2" stroke-linecap="round" stroke-linejoin="round"/>
<path d="M4 6C4 4.9 4.9 4 6 4" stroke="black" stroke-width="2" stroke-linecap="round" stroke-linejoin="round"/>
<path d="M24 6C24 4.9 23.1 4 22 4" stroke="black" stroke-width="2" stroke-linecap="round" stroke-linejoin="round"/>
</svg>