<svg xmlns="http://www.w3.org/2000/svg" width="36" height="32" viewBox="0 0 36 32" fill="none">
<path d="M23 26.0024L18 31.0024L13 26.0024" stroke="black" stroke-width="2" stroke-linecap="round" stroke-linejoin="round"/>
<path d="M3 9.20244C3 4.94244 6.24 1.25244 10.5 1.01244C13.76 0.83244 16.62 2.62244 18 5.30244C19.47 2.47244 22.59 0.632443 26.09 1.06244C30.1 1.56244 33 5.15244 33 9.19244" stroke="black" stroke-width="2" stroke-linecap="round" stroke-linejoin="round"/>
<path d="M14 13.0024H4C2.34 13.0024 1 14.3424 1 16.0024V17.0024C1 19.7624 3.24 22.0024 6 22.0024H12" stroke="black" stroke-width="2" stroke-linecap="round" stroke-linejoin="round"/>
<path d="M5 13.0024L10 10.0024" stroke="black" stroke-width="2" stroke-linecap="round" stroke-linejoin="round"/>
<path d="M8 16.0024H16" stroke="black" stroke-width="2" stroke-linecap="round" stroke-linejoin="round"/>
<path d="M7 19.0024H14" stroke="black" stroke-width="2" stroke-linecap="round" stroke-linejoin="round"/>
<path d="M22 13.0024H32C33.66 13.0024 35 14.3424 35 16.0024V17.0024C35 19.7624 32.76 22.0024 30 22.0024H23" stroke="black" stroke-width="2" stroke-linecap="round" stroke-linejoin="round"/>
<path d="M31 13.0024L26 10.0024" stroke="black" stroke-width="2" stroke-linecap="round" stroke-linejoin="round"/>
<path d="M28 16.0024H20" stroke="black" stroke-width="2" stroke-linecap="round" stroke-linejoin="round"/>
<path d="M29 19.0024H22" stroke="black" stroke-width="2" stroke-linecap="round" stroke-linejoin="round"/>
</svg>