<svg xmlns="http://www.w3.org/2000/svg" width="68" height="60" viewBox="0 0 68 60" fill="none">
<path d="M43.4119 48.8694L34.0001 58.2424L24.5884 48.8694" stroke="black" strokeWidth="3" strokeLinecap="round" stroke-linejoin="round"/>
<path d="M5.76465 17.3763C5.76465 9.39048 11.8635 2.47322 19.8823 2.02332C26.0188 1.68589 31.4023 5.04142 33.9999 10.0653C36.767 4.76023 42.6399 1.31098 49.2282 2.11706C56.7764 3.05435 62.2352 9.78414 62.2352 17.3575" stroke="black" strokeWidth="3" strokeLinecap="round" stroke-linejoin="round"/>
<path d="M26.4706 24.4997H7.64706C4.52235 24.4997 2 27.0117 2 30.1235V31.9981C2 37.172 6.21647 41.371 11.4118 41.371H22.7059" stroke="black" strokeWidth="3" strokeLinecap="round" stroke-linejoin="round"/>
<path d="M9.5293 24.4997L18.9411 18.8759" stroke="black" strokeWidth="3" strokeLinecap="round" stroke-linejoin="round"/>
<path d="M15.1763 30.1235H30.2351" stroke="black" strokeWidth="3" strokeLinecap="round" stroke-linejoin="round"/>
<path d="M13.2939 35.7473H26.4704" stroke="black" strokeWidth="3" strokeLinecap="round" stroke-linejoin="round"/>
<path d="M41.5293 24.4997H60.3528C63.4775 24.4997 65.9999 27.0117 65.9999 30.1235V31.9981C65.9999 37.172 61.7834 41.371 56.5881 41.371H43.4116" stroke="black" strokeWidth="3" strokeLinecap="round" stroke-linejoin="round"/>
<path d="M58.4704 24.4997L49.0586 18.8759" stroke="black" strokeWidth="3" strokeLinecap="round" stroke-linejoin="round"/>
<path d="M52.8235 30.1235H37.7646" stroke="black" strokeWidth="3" strokeLinecap="round" stroke-linejoin="round"/>
<path d="M54.7058 35.7473H41.5293" stroke="black" strokeWidth="3" strokeLinecap="round" stroke-linejoin="round"/>
</svg>