<svg xmlns="http://www.w3.org/2000/svg" width="62" height="62" viewBox="0 0 62 62" fill="none">
<path d="M31 10.3132C33.8318 4.83789 39.8706 1.27299 46.6259 2.12583C54.3706 3.09808 60 10.0403 60 17.8523C60 26.2784 56.6565 34.3464 50.7029 40.2992L31 60L11.2971 40.2992C5.34353 34.3464 2 26.2784 2 17.8523C2 9.61383 8.27765 2.48403 16.5 2.02349C22.7947 1.68235 28.3388 5.14491 31 10.3132Z" stroke="black" stroke-width="3" strokeLinecap="round" stroke-linejoin="round"/>
<path d="M3.70605 27.5919H17.6431C18.5472 27.5919 19.4172 27.9501 20.0484 28.5982L24.1596 32.7089C24.1596 34.5852 25.6949 36.1203 27.5713 36.1203C29.4478 36.1203 30.9831 37.6554 30.9831 39.5317V41.2374L27.5713 44.6488H15.6302" stroke="black" stroke-width="3" strokeLinecap="round" stroke-linejoin="round"/>
<path d="M54.8825 8.82922L49.7649 13.9463V17.3577H39.5296L33.7125 23.1741C33.0643 23.8223 32.7061 24.6751 32.7061 25.5791V25.8691C32.7061 27.7454 34.2413 29.2805 36.1178 29.2805H39.5296L44.6472 34.3976V39.5146L48.059 42.926" stroke="black" stroke-width="3" strokeLinecap="round" stroke-linejoin="round"/>
<path d="M8.82353 7.12354L12.2353 10.5349V13.9463C12.2353 15.8226 10.7 17.3577 8.82353 17.3577H2" stroke="black" stroke-width="3" strokeLinecap="round" stroke-linejoin="round"/>
</svg>